<svg width="581" height="101" viewBox="0 0 581 101" fill="none" xmlns="http://www.w3.org/2000/svg">
<path d="M28.829 27.0196C28.829 23.2497 29.5586 19.7203 31.0066 16.4704C32.439 13.2205 34.4342 10.352 36.9566 7.89722C39.4589 5.44247 42.4194 3.51204 45.8092 2.10375C49.1924 0.708468 52.7824 -7.62939e-06 56.5748 -7.62939e-06C60.3828 -7.62939e-06 63.9706 0.708468 67.3604 2.10375C70.7458 3.51204 73.7085 5.44247 76.2086 7.89722C78.7243 10.352 80.7239 13.2205 82.1564 16.4704C83.611 19.7203 84.3273 23.2497 84.3273 27.0196V74.4734C84.3273 77.5169 81.8601 79.9841 78.8166 79.9841C75.7731 79.9841 73.3059 77.5169 73.3059 74.4734V27.0196C73.3059 24.7772 72.8811 22.6647 72.0114 20.6975C71.1461 18.7172 69.9339 16.9861 68.4058 15.4933C66.8933 14.0244 65.1161 12.8436 63.0786 11.9986C61.0456 11.1514 58.8925 10.7398 56.5748 10.7398C54.2682 10.7398 52.0973 11.1514 50.0777 11.9986C48.0447 12.8436 46.2697 14.0244 44.7594 15.4933C43.2268 16.9861 42.0191 18.7172 41.1516 20.6975C40.2841 22.6647 39.8548 24.7772 39.8548 27.0196V41.7197H28.829V27.0196ZM34.3419 80.1921C31.2972 80.1921 28.829 77.7239 28.829 74.6792V46.7423H39.8548V74.6792C39.8548 77.7239 37.3866 80.1921 34.3419 80.1921Z" fill="#72498A"/>
<path d="M29.4631 10.6315C28.0684 12.4111 26.9012 14.3604 25.9711 16.4704C25.5298 17.4609 25.1553 18.4773 24.8477 19.5186L23.0548 19.5123C21.1442 19.508 19.3447 19.8481 17.6676 20.5414C15.9772 21.2348 14.5024 22.2032 13.2235 23.4317C11.9668 24.645 10.9636 26.0728 10.2363 27.7172C9.50225 29.3465 9.15081 31.0863 9.14636 32.9474C9.13969 34.8063 9.4889 36.5612 10.2029 38.1948C10.9191 39.8328 11.9178 41.2627 13.1679 42.4869C14.4357 43.7218 15.906 44.699 17.592 45.4053C19.2669 46.1051 21.0641 46.4604 22.977 46.4647L68.8192 46.5446V55.4269L22.9503 55.3456C19.7362 55.3348 16.729 54.7411 13.9664 53.569C11.1994 52.4055 8.76378 50.7849 6.6774 48.7527C4.59324 46.7269 2.95394 44.3436 1.76394 41.6029C0.585071 38.8773 -0.00881392 35.9871 8.32408e-05 32.9235C0.0089804 29.8643 0.618436 26.9741 1.8151 24.2442C3.02289 21.5186 4.67554 19.1397 6.77304 17.1312C8.86832 15.1033 11.3173 13.5 14.091 12.3604C16.8602 11.1969 19.8719 10.6228 23.0815 10.6315H29.4631ZM34.6797 10.6315H35.0104L34.813 11.0237C34.7693 10.8906 34.7248 10.7597 34.6797 10.6315ZM95.0751 51.0319C95.0751 48.5777 93.0878 46.5869 90.6336 46.5827L73.8547 46.5534V55.4358L90.6336 55.4656C93.0822 55.4699 95.0707 53.4884 95.0751 51.0398L95.0751 51.0319Z" fill="#72498A"/>
<path d="M285.301 29.7776C288.515 31.1404 291.364 32.9907 293.829 35.3523C296.287 37.7139 298.211 40.4633 299.605 43.5983C300.991 46.7226 301.692 50.1154 301.692 53.7553V74.5643C301.692 77.4942 299.316 79.8693 296.387 79.8693C293.457 79.8693 291.082 77.4942 291.082 74.5643V53.7553C291.082 51.5887 290.666 49.5565 289.832 47.6607C289.002 45.7606 287.841 44.0988 286.377 42.6645C284.905 41.2389 283.177 40.1123 281.186 39.2998C279.204 38.4873 277.102 38.0822 274.873 38.0822C272.649 38.0822 270.56 38.4873 268.627 39.2998C266.677 40.1123 264.964 41.2389 263.496 42.6645C262.028 44.0988 260.876 45.7606 260.042 47.6607C259.208 49.5565 258.792 51.5887 258.792 53.7553V74.5632C258.792 77.4937 256.416 79.8693 253.486 79.8693C250.555 79.8693 248.18 77.4937 248.18 74.5632V53.7553C248.18 51.5887 247.764 49.5565 246.93 47.6607C246.095 45.7606 244.952 44.0988 243.475 42.6645C242.003 41.2389 240.277 40.1123 238.288 39.2998C236.309 38.4873 234.198 38.0822 231.976 38.0822C229.758 38.0822 227.667 38.4873 225.721 39.2998C223.768 40.1123 222.066 41.2389 220.598 42.6645C219.128 44.0988 217.976 45.7606 217.137 47.6607C216.303 49.5565 215.885 51.5887 215.885 53.7553V74.5699C215.885 77.4967 213.513 79.8693 210.586 79.8693C207.659 79.8693 205.286 77.4967 205.286 74.5699V53.7553C205.286 50.1154 205.978 46.7226 207.371 43.5983C208.759 40.4633 210.669 37.7139 213.098 35.3523C215.509 32.9907 218.352 31.1404 221.61 29.7776C224.869 28.4278 228.319 27.7475 231.976 27.7475C236.422 27.7475 240.501 28.6987 244.191 30.5901C247.893 32.4902 250.967 35.0685 253.431 38.3183C255.889 35.0685 258.987 32.4902 262.726 30.5901C266.45 28.6987 270.503 27.7475 274.873 27.7475C278.61 27.7475 282.084 28.4278 285.301 29.7776Z" fill="#6AB862"/>
<path d="M361.351 74.7626C361.351 78.4003 360.664 81.778 359.267 84.9131C357.879 88.0546 355.969 90.8214 353.544 93.2198C351.115 95.6204 348.31 97.4902 345.087 98.8486C341.867 100.203 338.397 100.879 334.66 100.879H334.47C331.617 100.879 329.304 98.5657 329.304 95.7125C329.304 92.8592 331.617 90.5462 334.47 90.5462H334.66C336.889 90.5462 338.973 90.1389 340.919 89.3264C342.865 88.5183 344.578 87.3895 346.042 85.9639C347.514 84.5296 348.666 82.8483 349.5 80.9114C350.334 78.981 350.75 76.9249 350.75 74.7626C348.519 76.3485 346.042 77.6572 343.306 78.5953C340.563 79.5226 337.676 79.9841 334.66 79.9841C331.005 79.9841 327.562 79.3016 324.299 77.9518C321.041 76.602 318.178 74.7236 315.718 72.3252C313.256 69.9246 311.323 67.1362 309.932 63.9621C308.551 60.7881 307.851 57.4233 307.851 53.8658V33.1759C307.851 30.2461 310.226 27.871 313.155 27.871C316.085 27.871 318.46 30.2461 318.46 33.1759V53.8658C318.46 56.0367 318.876 58.0885 319.71 60.0146C320.545 61.9537 321.692 63.6458 323.16 65.0714C324.628 66.5057 326.363 67.6193 328.347 68.4318C330.334 69.2486 332.436 69.6494 334.66 69.6494C336.889 69.6494 338.973 69.2486 340.919 68.4318C342.865 67.6193 344.578 66.5057 346.042 65.0714C347.514 63.6458 348.666 61.9537 349.5 60.0146C350.334 58.0885 350.75 56.0367 350.75 53.8658V33.1715C350.75 30.2441 353.124 27.871 356.051 27.871C358.978 27.871 361.351 30.2441 361.351 33.1715V74.7626Z" fill="#6AB862"/>
<path d="M180.506 29.7776C183.726 31.1404 186.565 32.9907 189.029 35.3523C191.496 37.7139 193.413 40.4633 194.812 43.5983C196.198 46.7226 196.896 50.1154 196.896 53.7553V74.5655C196.896 77.4947 194.522 79.8693 191.593 79.8693C188.663 79.8693 186.289 77.4947 186.289 74.5655V53.7553C186.289 51.5887 185.871 49.5565 185.036 47.6607C184.202 45.7606 183.048 44.0988 181.584 42.6645C180.107 41.2389 178.384 40.1123 176.397 39.2998C174.407 38.4873 172.305 38.0822 170.083 38.0822C167.852 38.0822 165.765 38.4873 163.828 39.2998C161.879 40.1123 160.171 41.2389 158.699 42.6645C157.233 44.0988 156.081 45.7606 155.247 47.6607C154.41 49.5565 153.997 51.5887 153.997 53.7553V74.5632C153.997 77.4937 151.621 79.8693 148.69 79.8693C145.76 79.8693 143.384 77.4937 143.384 74.5632V53.7553C143.384 51.5887 142.966 49.5565 142.132 47.6607C141.3 45.7606 140.155 44.0988 138.682 42.6645C137.208 41.2389 135.482 40.1123 133.493 39.2998C131.516 38.4873 129.4 38.0822 127.183 38.0822C124.961 38.0822 122.874 38.4873 120.924 39.2998C118.977 40.1123 117.269 41.2389 115.805 42.6645C114.329 44.0988 113.174 45.7606 112.342 47.6607C111.508 49.5565 111.092 51.5887 111.092 53.7553V74.5699C111.092 77.4967 108.72 79.8693 105.793 79.8693C102.866 79.8693 100.493 77.4967 100.493 74.5699V53.7553C100.493 50.1154 101.183 46.7226 102.582 43.5983C103.963 40.4633 105.876 37.7139 108.298 35.3523C110.714 32.9907 113.554 31.1404 116.815 29.7776C120.072 28.4278 123.522 27.7475 127.183 27.7475C131.634 27.7475 135.704 28.6987 139.401 30.5901C143.095 32.4902 146.169 35.0685 148.632 38.3183C151.092 35.0685 154.188 32.4902 157.931 30.5901C161.655 28.6987 165.71 27.7475 170.083 27.7475C173.817 27.7475 177.287 28.4278 180.506 29.7776Z" fill="#72498A"/>
<path d="M28.1648 100.786V85.8033H29.6458V99.4781H38.3204V100.786H28.1648ZM45.1631 85.8033H46.4114L52.6528 100.786H51.0872L49.1407 96.1016H42.3915L40.4661 100.786H38.8793L45.1631 85.8033ZM48.8022 94.9409L45.7767 87.5338L42.7088 94.9409H48.8022ZM58.0657 93.1894C58.0657 92.289 58.2243 91.3921 58.5417 90.4987C58.8591 89.6054 59.321 88.807 59.9275 88.1036C60.534 87.4001 61.2816 86.8268 62.1702 86.3837C63.0588 85.9405 64.0673 85.7189 65.1957 85.7189C66.5357 85.7189 67.6817 86.0214 68.6338 86.6264C69.5859 87.2313 70.2876 88.0191 70.739 88.9899L69.5753 89.7074C69.3356 89.215 69.0429 88.8 68.6973 88.4623C68.3517 88.1247 67.9815 87.8503 67.5865 87.6393C67.1916 87.4283 66.7826 87.277 66.3594 87.1856C65.9362 87.0941 65.5202 87.0484 65.1111 87.0484C64.2084 87.0484 63.4115 87.2313 62.7203 87.5971C62.0292 87.9629 61.4473 88.4412 60.9748 89.0321C60.5023 89.623 60.1461 90.2877 59.9064 91.0263C59.6666 91.7649 59.5467 92.5141 59.5467 93.2738C59.5467 94.1038 59.6913 94.8987 59.9804 95.6584C60.2696 96.4181 60.6645 97.0899 61.1652 97.6737C61.666 98.2576 62.2584 98.7219 62.9425 99.0665C63.6266 99.4112 64.3706 99.5836 65.1746 99.5836C65.5977 99.5836 66.0315 99.5308 66.4758 99.4253C66.9201 99.3198 67.3503 99.151 67.7664 98.9188C68.1825 98.6867 68.5668 98.3983 68.9195 98.0536C69.2721 97.7089 69.5683 97.2904 69.8081 96.798L71.0352 97.4311C70.7954 97.9938 70.4569 98.4897 70.0196 98.9188C69.5824 99.3479 69.0958 99.7102 68.5598 100.006C68.0238 100.301 67.4561 100.526 66.8566 100.681C66.2571 100.836 65.6683 100.913 65.0899 100.913C64.0603 100.913 63.1153 100.688 62.2548 100.238C61.3944 99.7876 60.6539 99.2002 60.0333 98.4757C59.4127 97.7511 58.9296 96.9281 58.584 96.0066C58.2384 95.0851 58.0657 94.146 58.0657 93.1894ZM79.3712 100.892C78.3274 100.892 77.3718 100.677 76.5044 100.248C75.6369 99.8192 74.8929 99.2494 74.2722 98.539C73.6516 97.8285 73.1721 97.016 72.8335 96.1016C72.495 95.1871 72.3258 94.2516 72.3258 93.2949C72.3258 92.296 72.5056 91.3393 72.8653 90.4249C73.225 89.5104 73.7221 88.7015 74.3569 87.998C74.9916 87.2946 75.7392 86.7354 76.5996 86.3204C77.46 85.9053 78.3909 85.6978 79.3924 85.6978C80.4361 85.6978 81.3918 85.9194 82.2592 86.3626C83.1267 86.8057 83.8672 87.3861 84.4807 88.1036C85.0943 88.8211 85.5704 89.6335 85.9089 90.541C86.2474 91.4484 86.4167 92.3734 86.4167 93.316C86.4167 94.3149 86.2368 95.2715 85.8771 96.186C85.5175 97.1005 85.0238 97.9059 84.3961 98.6023C83.7684 99.2987 83.0244 99.8544 82.164 100.269C81.3036 100.684 80.3727 100.892 79.3712 100.892ZM73.8068 93.2949C73.8068 94.1109 73.9408 94.8952 74.2088 95.6479C74.4768 96.4005 74.8576 97.0688 75.3513 97.6526C75.845 98.2365 76.4303 98.7008 77.1074 99.0454C77.7844 99.3901 78.539 99.5625 79.3712 99.5625C80.2175 99.5625 80.9862 99.3796 81.6774 99.0138C82.3685 98.648 82.9539 98.1697 83.4335 97.5788C83.913 96.9879 84.2833 96.3196 84.5442 95.574C84.8052 94.8284 84.9356 94.0687 84.9356 93.2949C84.9356 92.4789 84.7981 91.6946 84.5231 90.9419C84.248 90.1892 83.8637 89.5245 83.37 88.9477C82.8763 88.3709 82.291 87.9101 81.6139 87.5654C80.9369 87.2208 80.1893 87.0484 79.3712 87.0484C78.5249 87.0484 77.7562 87.2278 77.065 87.5865C76.3739 87.9453 75.7885 88.4201 75.309 89.011C74.8294 89.6019 74.4591 90.2701 74.1982 91.0158C73.9373 91.7614 73.8068 92.5211 73.8068 93.2949ZM102.526 100.786V88.4834L97.0465 98.0008H96.1791L90.6993 88.4834V100.786H89.2183V85.8033H90.7416L96.6022 96.0594L102.505 85.8033H104.007V100.786H102.526ZM121.09 100.786V88.4834L115.61 98.0008H114.743L109.263 88.4834V100.786H107.782V85.8033H109.306L115.166 96.0594L121.069 85.8033H122.571V100.786H121.09ZM132.44 99.5625C133.385 99.5625 134.171 99.3831 134.799 99.0243C135.426 98.6656 135.927 98.1943 136.301 97.6104C136.675 97.0266 136.935 96.3619 137.084 95.6162C137.232 94.8706 137.306 94.1179 137.306 93.3582V85.8033H138.787V93.3582C138.787 94.3711 138.674 95.3313 138.448 96.2387C138.223 97.1462 137.859 97.9446 137.359 98.6339C136.858 99.3233 136.206 99.872 135.402 100.28C134.598 100.688 133.617 100.892 132.461 100.892C131.276 100.892 130.278 100.677 129.467 100.248C128.656 99.8192 128.003 99.253 127.51 98.5495C127.016 97.8461 126.664 97.0442 126.452 96.1438C126.24 95.2434 126.135 94.3149 126.135 93.3582V85.8033H127.594V93.3582C127.594 94.146 127.672 94.9128 127.827 95.6584C127.982 96.4041 128.247 97.0653 128.621 97.6421C128.994 98.2189 129.492 98.6832 130.112 99.0349C130.733 99.3866 131.509 99.5625 132.44 99.5625ZM143.81 88.5467V100.786H142.329V85.8033H143.471L153.415 98.2752V85.8244H154.896V100.786H153.606L143.81 88.5467ZM163.326 85.8033H164.574L170.816 100.786H169.25L167.304 96.1016H160.554L158.629 100.786H157.042L163.326 85.8033ZM166.965 94.9409L163.94 87.5338L160.872 94.9409H166.965ZM177.911 99.5625C178.856 99.5625 179.642 99.3831 180.27 99.0243C180.897 98.6656 181.398 98.1943 181.772 97.6104C182.146 97.0266 182.407 96.3619 182.555 95.6162C182.703 94.8706 182.777 94.1179 182.777 93.3582V85.8033H184.258V93.3582C184.258 94.3711 184.145 95.3313 183.919 96.2387C183.694 97.1462 183.331 97.9446 182.83 98.6339C182.329 99.3233 181.677 99.872 180.873 100.28C180.069 100.688 179.088 100.892 177.932 100.892C176.747 100.892 175.749 100.677 174.938 100.248C174.127 99.8192 173.475 99.253 172.981 98.5495C172.487 97.8461 172.135 97.0442 171.923 96.1438C171.712 95.2434 171.606 94.3149 171.606 93.3582V85.8033H173.066V93.3582C173.066 94.146 173.143 94.9128 173.298 95.6584C173.453 96.4041 173.718 97.0653 174.092 97.6421C174.466 98.2189 174.963 98.6832 175.583 99.0349C176.204 99.3866 176.98 99.5625 177.911 99.5625ZM198.463 87.1117H193.111V100.786H191.63V87.1117H186.277V85.8033H198.463V87.1117ZM206.089 83.7563L205.137 83.3976L206.385 81.435H207.908L206.089 83.7563ZM210.807 99.4781V100.786H200.715V85.8033H210.617V87.1117H202.196V92.5141H209.538V93.7591H202.196V99.4781H210.807ZM227.793 88.61C227.37 88.1317 226.806 87.7448 226.1 87.4494C225.395 87.1539 224.591 87.0062 223.688 87.0062C222.363 87.0062 221.396 87.2559 220.79 87.7554C220.183 88.2548 219.88 88.9336 219.88 89.7918C219.88 90.242 219.961 90.6113 220.123 90.8997C220.286 91.1881 220.536 91.4378 220.874 91.6489C221.213 91.8599 221.647 92.0428 222.176 92.1975C222.705 92.3523 223.329 92.507 224.048 92.6618C224.852 92.8306 225.575 93.0205 226.217 93.2316C226.859 93.4426 227.405 93.7064 227.856 94.0229C228.308 94.3395 228.653 94.7228 228.893 95.173C229.133 95.6232 229.253 96.186 229.253 96.8613C229.253 97.5507 229.119 98.1486 228.851 98.655C228.583 99.1615 228.209 99.5836 227.73 99.9212C227.25 100.259 226.679 100.509 226.016 100.67C225.353 100.832 224.626 100.913 223.837 100.913C221.509 100.913 219.499 100.189 217.807 98.7394L218.547 97.5366C218.815 97.818 219.136 98.0852 219.51 98.3385C219.884 98.5917 220.3 98.8133 220.758 99.0032C221.217 99.1932 221.707 99.3409 222.229 99.4464C222.75 99.5519 223.301 99.6047 223.879 99.6047C225.078 99.6047 226.012 99.3901 226.682 98.961C227.352 98.5319 227.687 97.8813 227.687 97.009C227.687 96.5447 227.592 96.1543 227.402 95.8378C227.211 95.5212 226.926 95.2469 226.545 95.0148C226.164 94.7826 225.691 94.5822 225.127 94.4133C224.563 94.2445 223.907 94.0757 223.16 93.9069C222.37 93.724 221.678 93.534 221.086 93.3371C220.494 93.1401 219.993 92.8939 219.584 92.5985C219.175 92.303 218.868 91.9478 218.664 91.5328C218.459 91.1178 218.357 90.6078 218.357 90.0028C218.357 89.3135 218.487 88.698 218.748 88.1563C219.009 87.6147 219.379 87.1645 219.859 86.8057C220.339 86.447 220.903 86.1726 221.552 85.9827C222.2 85.7928 222.92 85.6978 223.71 85.6978C224.711 85.6978 225.603 85.8491 226.386 86.1515C227.169 86.454 227.878 86.8796 228.512 87.4283L227.793 88.61ZM237.915 100.892C236.871 100.892 235.916 100.677 235.048 100.248C234.181 99.8192 233.437 99.2494 232.816 98.539C232.196 97.8285 231.716 97.016 231.377 96.1016C231.039 95.1871 230.87 94.2516 230.87 93.2949C230.87 92.296 231.049 91.3393 231.409 90.4249C231.769 89.5104 232.266 88.7015 232.901 87.998C233.535 87.2946 234.283 86.7354 235.143 86.3204C236.004 85.9053 236.935 85.6978 237.936 85.6978C238.98 85.6978 239.936 85.9194 240.803 86.3626C241.671 86.8057 242.411 87.3861 243.025 88.1036C243.638 88.8211 244.114 89.6335 244.453 90.541C244.791 91.4484 244.961 92.3734 244.961 93.316C244.961 94.3149 244.781 95.2715 244.421 96.186C244.061 97.1005 243.568 97.9059 242.94 98.6023C242.312 99.2987 241.568 99.8544 240.708 100.269C239.847 100.684 238.917 100.892 237.915 100.892ZM232.351 93.2949C232.351 94.1109 232.485 94.8952 232.753 95.6479C233.021 96.4005 233.401 97.0688 233.895 97.6526C234.389 98.2365 234.974 98.7008 235.651 99.0454C236.328 99.3901 237.083 99.5625 237.915 99.5625C238.761 99.5625 239.53 99.3796 240.221 99.0138C240.912 98.648 241.498 98.1697 241.977 97.5788C242.457 96.9879 242.827 96.3196 243.088 95.574C243.349 94.8284 243.48 94.0687 243.48 93.2949C243.48 92.4789 243.342 91.6946 243.067 90.9419C242.792 90.1892 242.408 89.5245 241.914 88.9477C241.42 88.3709 240.835 87.9101 240.158 87.5654C239.481 87.2208 238.733 87.0484 237.915 87.0484C237.069 87.0484 236.3 87.2278 235.609 87.5865C234.918 87.9453 234.332 88.4201 233.853 89.011C233.373 89.6019 233.003 90.2701 232.742 91.0158C232.481 91.7614 232.351 92.5211 232.351 93.2949ZM247.762 100.786V85.8033H249.243V99.4781H257.918V100.786H247.762ZM260.106 100.786V85.8033H261.587V100.786H260.106ZM265.362 100.786V85.8033H270.461C271.66 85.8033 272.707 86.0003 273.603 86.3942C274.498 86.7881 275.246 87.3227 275.845 87.998C276.445 88.6733 276.896 89.4647 277.199 90.3721C277.503 91.2796 277.654 92.2468 277.654 93.2738C277.654 94.4133 277.485 95.4439 277.146 96.3654C276.808 97.2869 276.325 98.0747 275.697 98.7289C275.069 99.3831 274.315 99.8896 273.433 100.248C272.552 100.607 271.561 100.786 270.461 100.786H265.362ZM276.173 93.2738C276.173 92.3734 276.046 91.5469 275.792 90.7942C275.538 90.0415 275.168 89.3908 274.682 88.8422C274.195 88.2935 273.599 87.8679 272.894 87.5654C272.188 87.263 271.377 87.1117 270.461 87.1117H266.843V99.4781H270.461C271.392 99.4781 272.213 99.3198 272.925 99.0032C273.638 98.6867 274.234 98.2506 274.713 97.6949C275.193 97.1391 275.556 96.485 275.803 95.7323C276.05 94.9796 276.173 94.1601 276.173 93.2738ZM284.214 85.8033H285.463L291.704 100.786H290.138L288.192 96.1016H281.443L279.517 100.786H277.931L284.214 85.8033ZM287.853 94.9409L284.828 87.5338L281.76 94.9409H287.853ZM293.871 100.786V85.8033H295.352V100.786H293.871ZM299.127 100.786V85.8033H305.474C306.123 85.8033 306.719 85.9405 307.262 86.2148C307.805 86.4892 308.274 86.8479 308.669 87.2911C309.064 87.7343 309.371 88.2372 309.589 88.8C309.808 89.3627 309.917 89.9325 309.917 90.5093C309.917 91.058 309.836 91.582 309.674 92.0815C309.512 92.5809 309.286 93.0311 308.997 93.4321C308.708 93.833 308.359 94.1707 307.949 94.445C307.54 94.7193 307.082 94.9057 306.574 95.0042L310.256 100.786H308.584L305.051 95.2575H300.608V100.786H299.127ZM300.608 93.9491H305.516C305.954 93.9491 306.352 93.8541 306.712 93.6642C307.071 93.4743 307.378 93.2175 307.632 92.8939C307.886 92.5703 308.084 92.2046 308.225 91.7966C308.366 91.3886 308.436 90.9595 308.436 90.5093C308.436 90.0591 308.355 89.6265 308.193 89.2115C308.031 88.7964 307.812 88.4342 307.537 88.1247C307.262 87.8152 306.938 87.5689 306.564 87.3861C306.19 87.2032 305.798 87.1117 305.389 87.1117H300.608V93.9491ZM323.044 99.4781V100.786H312.952V85.8033H322.853V87.1117H314.433V92.5141H321.774V93.7591H314.433V99.4781H323.044Z" fill="#71488A"/>
<path d="M412.252 16.4733C412.74 15.5573 413.565 14.916 414.725 14.5496C415.885 14.1832 417.412 14 419.305 14C421.26 14 422.817 14.1832 423.977 14.5496C425.137 14.916 425.931 15.5573 426.359 16.4733C426.847 17.3893 427.122 18.2137 427.183 18.9466C427.305 19.6183 427.366 20.6565 427.366 22.0611V76.7481C427.366 78.1527 427.305 79.2214 427.183 79.9542C427.122 80.626 426.847 81.3893 426.359 82.2443C425.443 83.8931 422.847 84.7176 418.573 84.7176C414.359 84.7176 412.008 83.2214 411.519 80.229C408.954 83.1603 405.382 84.626 400.802 84.626C395.305 84.626 390.298 82.2443 385.779 77.4809C381.26 72.6565 379 67.0687 379 60.7176C379 54.3053 381.26 48.687 385.779 43.8626C390.359 39.0382 395.366 36.626 400.802 36.626C405.321 36.626 408.832 38.1527 411.336 41.2061V21.9695C411.336 20.5649 411.366 19.5267 411.427 18.855C411.55 18.1221 411.824 17.3282 412.252 16.4733ZM397.412 66.2137C399 67.8626 400.924 68.687 403.183 68.687C405.443 68.687 407.305 67.8626 408.771 66.2137C410.298 64.5649 411.061 62.7634 411.061 60.8092C411.061 58.7939 410.328 56.9313 408.863 55.2214C407.458 53.5115 405.534 52.6565 403.092 52.6565C400.649 52.6565 398.695 53.5115 397.229 55.2214C395.763 56.8702 395.031 58.7023 395.031 60.7176C395.031 62.7328 395.824 64.5649 397.412 66.2137Z" fill="#72498A"/>
<path d="M481.197 54.9466C481.197 58.6718 480.251 61.4504 478.358 63.2824C476.526 65.0534 474.48 65.9389 472.22 65.9389H450.51C450.51 67.6489 451.518 69.084 453.533 70.2443C455.549 71.4046 457.564 71.9847 459.579 71.9847C463.121 71.9847 465.9 71.6183 467.915 70.8855L468.923 70.5191C470.388 69.8473 471.61 69.5114 472.587 69.5114C474.541 69.5114 476.22 70.8855 477.625 73.6336C478.419 75.2824 478.816 76.687 478.816 77.8473C478.816 83.2824 472.312 86 459.304 86C454.785 86 450.755 85.2366 447.213 83.7099C443.732 82.1221 441.014 80.0458 439.06 77.4809C435.213 72.5344 433.289 67.0076 433.289 60.9008C433.289 53.2061 435.762 47.0687 440.709 42.4886C445.717 37.8473 451.946 35.5267 459.396 35.5267C467.885 35.5267 474.114 38.5191 478.083 44.5038C480.159 47.6794 481.197 51.1603 481.197 54.9466ZM461.869 57.6031C464.19 57.6031 465.35 56.626 465.35 54.6718C465.35 53.2672 464.801 52.1374 463.701 51.2824C462.663 50.4275 461.136 50 459.121 50C457.167 50 455.213 50.8244 453.259 52.4733C451.304 54.0611 450.327 55.771 450.327 57.6031H461.869Z" fill="#72498A"/>
<path d="M533.042 37.6336C536.218 39.5267 537.805 41.542 537.805 43.6794C537.805 44.9008 537.195 46.5802 535.973 48.7176L517.011 81.2366C516.401 82.2748 515.424 83.2214 514.08 84.0763C512.737 84.8702 511.393 85.2672 510.05 85.2672C508.767 85.2672 507.515 84.9618 506.294 84.3511C505.134 83.6794 504.309 83.0076 503.821 82.3359L502.996 81.3282L483.943 48.7176C482.721 46.7023 482.111 45.0534 482.111 43.771C482.111 41.5725 483.698 39.5267 486.874 37.6336C489.195 36.2901 491.027 35.6183 492.37 35.6183C493.714 35.6183 494.752 36.0458 495.485 36.9008C496.279 37.6947 497.103 38.916 497.958 40.5649L509.958 63.6489L521.958 40.5649C522.63 39.4046 523.118 38.5802 523.424 38.0916C523.79 37.542 524.34 37.0229 525.072 36.5344C525.805 35.9847 526.782 35.7099 528.004 35.7099C529.225 35.7099 530.905 36.3511 533.042 37.6336Z" fill="#72498A"/>
<path d="M542.287 80.5038C541.127 79.771 540.547 78.6107 540.547 77.0229C540.547 75.4351 541.707 73.0229 544.028 69.7863C544.7 68.7481 545.768 68.229 547.234 68.229C548.761 68.229 550.806 68.9924 553.371 70.5191C555.936 71.9847 558.257 72.7176 560.333 72.7176C564.058 72.7176 565.921 71.9847 565.921 70.5191C565.921 69.3588 563.875 68.5038 559.784 67.9542C555.936 67.4046 552.119 65.9695 548.333 63.6489C546.562 62.5496 545.097 60.8397 543.936 58.5191C542.776 56.1374 542.196 53.3282 542.196 50.0916C542.196 40.4428 548.822 35.6183 562.074 35.6183C566.41 35.6183 570.868 36.6565 575.448 38.7328C577.585 39.7099 578.654 40.9313 578.654 42.3969C578.654 43.8626 577.982 45.6641 576.639 47.8015C575.295 49.9389 573.921 51.0076 572.516 51.0076C571.784 51.0076 570.41 50.5496 568.394 49.6336C566.44 48.7176 564.303 48.2595 561.982 48.2595C558.379 48.2595 556.577 48.9313 556.577 50.2748C556.577 52.1069 558.654 53.2977 562.806 53.8473C566.837 54.2748 570.745 55.4351 574.532 57.3282C576.303 58.1832 577.768 59.6794 578.929 61.8168C580.15 63.8931 580.761 66.5191 580.761 69.6947C580.761 72.8702 580.15 75.5878 578.929 77.8473C577.768 80.0458 576.119 81.6947 573.982 82.7939C570.074 84.687 565.158 85.6336 559.234 85.6336C553.371 85.6336 547.723 83.9237 542.287 80.5038Z" fill="#72498A"/>
</svg>
