<?xml version="1.0" encoding="UTF-8"?>
<svg width="312px" height="94px" viewBox="0 0 312 94" version="1.1" xmlns="http://www.w3.org/2000/svg" xmlns:xlink="http://www.w3.org/1999/xlink">
    <!-- Generator: Sketch 45.2 (43514) - http://www.bohemiancoding.com/sketch -->
    <title>logo-ammy-white</title>
    <desc>Created with Sketch.</desc>
    <defs></defs>
    <g id="Page-1" stroke="none" stroke-width="1" fill="none" fill-rule="evenodd">
        <g id="logo-ammy-white" fill-rule="nonzero" fill="#FFFFFF">
            <g id="Group" transform="translate(1.000000, 4.000000)">
                <path d="M25.1636633,23.4818658 C25.1636633,20.2551581 25.7881138,17.2342922 27.0274958,14.4526476 C28.2535514,11.671003 29.9612716,9.21573809 32.1201952,7.11466925 C34.2619847,5.01360038 36.7959595,3.36130353 39.6973702,2.15592422 C42.5930694,0.961671489 45.6658234,0.355272977 48.9118244,0.355272977 C52.1711518,0.355272977 55.2420018,0.961671489 58.1434127,2.15592422 C61.0410156,3.36130353 63.5768943,5.01360038 65.71678,7.11466925 C67.8699923,9.21573809 69.58152,11.671003 70.8075754,14.4526476 C72.0526691,17.2342922 72.6656967,20.2551581 72.6656967,23.4818658 L72.6656967,64.0985581 C72.6656967,66.7035174 70.5539598,68.8152543 67.9490005,68.8152543 C65.3440411,68.8152543 63.2323042,66.7035174 63.2323042,64.0985581 L63.2323042,23.4818658 C63.2323042,21.562531 62.8686761,19.754462 62.1242852,18.0706399 C61.383702,16.3756912 60.3461241,14.8940019 59.0382047,13.6162998 C57.743612,12.3589964 56.2224653,11.3483323 54.4785728,10.6251047 C52.7384881,9.90002265 50.8955972,9.54768102 48.9118244,9.54768102 C46.9375704,9.54768102 45.0794491,9.90002265 43.3507871,10.6251047 C41.6107022,11.3483323 40.0914595,12.3589964 38.7987704,13.6162998 C37.4870435,14.8940019 36.4532731,16.3756912 35.7107862,18.0706399 C34.9682993,19.754462 34.6008633,21.562531 34.6008633,23.4818658 L34.6008633,36.0640027 L25.1636633,36.0640027 L25.1636633,23.4818658 Z M29.8822633,68.9932795 C27.2762525,68.9932795 25.1636633,66.8806903 25.1636633,64.2746795 L25.1636633,40.3629079 L34.6008633,40.3629079 L34.6008633,64.2746795 C34.6008633,66.8806903 32.4882741,68.9932795 29.8822633,68.9932795 Z" id="Fill-1"></path>
                <path d="M25.7063566,9.45495954 C24.5125793,10.9781977 23.5135063,12.6466314 22.7174752,14.4526476 C22.3397548,15.3003959 22.0191503,16.1703633 21.7559311,17.0616053 L20.2213651,17.0562669 C18.5859899,17.052558 17.0458054,17.3437035 15.6103305,17.9371209 C14.1634327,18.5305385 12.9012048,19.3594686 11.8065125,20.4109302 C10.7308582,21.4494109 9.87223865,22.67148 9.24969186,24.0789922 C8.62143363,25.4735233 8.32063119,26.9626303 8.31682356,28.5555855 C8.31111213,30.1466861 8.61001075,31.6487741 9.22113466,33.0470142 C9.83416239,34.4489632 10.6889743,35.6728867 11.7589172,36.7206395 C12.8440905,37.7776645 14.1025107,38.6140121 15.5456008,39.2185562 C16.9791718,39.817537 18.5174527,40.1216637 20.1547317,40.1253724 L59.3919612,40.1937605 L59.3919612,47.7962616 L20.1318859,47.7266796 C17.3808764,47.7174076 14.8069215,47.2092938 12.442386,46.2060475 C10.0740428,45.2102185 7.98936777,43.8231051 6.20359136,42.08365 C4.41971874,40.3497583 3.01660868,38.3098857 1.99806884,35.9640322 C0.989048039,33.6311596 0.480730017,31.1573504 0.488345269,28.5351868 C0.49596052,25.9167319 1.01760523,23.4429228 2.04185652,21.1063413 C3.07562689,18.7734688 4.4901598,16.7373049 6.2854553,15.0182487 C8.07884696,13.2825024 10.1749449,11.9102244 12.5489995,10.9347944 C14.9192465,9.9389657 17.4970089,9.44754181 20.2442109,9.45495954 L25.7063566,9.45495954 Z M30.1713407,9.45495954 L30.4543591,9.45495954 L30.2854276,9.79067321 C30.2479832,9.67673272 30.2099432,9.56474137 30.1713407,9.45495954 Z M81.8649203,44.0345102 C81.8649203,41.9338841 80.1639681,40.2299647 78.0633451,40.2263034 L63.701982,40.2012725 L63.701982,47.8039004 L78.0633453,47.8293535 C80.1591794,47.833068 81.8611998,46.13707 81.8649143,44.0412359 L81.8649203,44.0345102 Z" id="Fill-3"></path>
                <path d="M244.682801,25.8425549 C247.43381,27.0089912 249.872594,28.5926739 251.982019,30.6140024 C254.085732,32.6353308 255.732531,34.9886021 256.926221,37.6719617 C258.112295,40.3460495 258.711996,43.2500863 258.711996,46.3655284 L258.711996,64.1763755 C258.711996,66.6840764 256.679103,68.7169696 254.171402,68.7169696 C251.663701,68.7169696 249.630808,66.6840764 249.630808,64.1763755 L249.630808,46.3655284 C249.630808,44.5110985 249.274797,42.7716437 248.560866,41.1490175 C247.850745,39.5226829 246.856955,38.1003352 245.604245,36.8727027 C244.34392,35.6524878 242.864658,34.6881846 241.160747,33.9927733 C239.464449,33.2973622 237.665345,32.9505839 235.757726,32.9505839 C233.853913,32.9505839 232.066232,33.2973622 230.411818,33.9927733 C228.742175,34.6881846 227.276239,35.6524878 226.019724,36.8727027 C224.763207,38.1003352 223.777031,39.5226829 223.063102,41.1490175 C222.349171,42.7716437 221.993159,44.5110985 221.993159,46.3655284 L221.993159,64.175424 C221.993159,66.6836504 219.95984,68.7169696 217.451614,68.7169696 C214.943387,68.7169696 212.910068,66.6836504 212.910068,64.175424 L212.910068,46.3655284 C212.910068,44.5110985 212.554054,42.7716437 211.840125,41.1490175 C211.126195,39.5226829 210.147635,38.1003352 208.883504,36.8727027 C207.62318,35.6524878 206.145821,34.6881846 204.443812,33.9927733 C202.749418,33.2973622 200.942701,32.9505839 199.040792,32.9505839 C197.14269,32.9505839 195.353107,33.2973622 193.687269,33.9927733 C192.015723,34.6881846 190.559305,35.6524878 189.302789,36.8727027 C188.044369,38.1003352 187.058193,39.5226829 186.340457,41.1490175 C185.626526,42.7716437 185.268609,44.5110985 185.268609,46.3655284 L185.268609,64.1811354 C185.268609,66.6862075 183.237847,68.7169696 180.732775,68.7169696 C178.227703,68.7169696 176.196941,66.6862075 176.196941,64.1811354 L176.196941,46.3655284 C176.196941,43.2500863 176.789027,40.3460495 177.980814,37.6719617 C179.168794,34.9886021 180.804169,32.6353308 182.883132,30.6140024 C184.946865,28.5926739 187.379938,27.0089912 190.169024,25.8425549 C192.95811,24.687245 195.910924,24.1049542 199.040792,24.1049542 C202.846513,24.1049542 206.338107,24.9190488 209.496531,26.537966 C212.664476,28.1643008 215.295545,30.3710722 217.40497,33.1527167 C219.508684,30.3710722 222.160694,28.1643008 225.361004,26.537966 C228.547986,24.9190488 232.016733,24.1049542 235.757726,24.1049542 C238.95613,24.1049542 241.929888,24.687245 244.682801,25.8425549 Z" id="Fill-6"></path>
                <path d="M309.776064,64.3460787 C309.776064,67.4596662 309.187786,70.3507222 307.992191,73.034082 C306.804212,75.7230048 305.168839,78.0911116 303.093681,80.1439654 C301.014718,82.1986735 298.61401,83.7990464 295.855385,84.9617737 C293.098664,86.1207923 290.128717,86.6993744 286.93031,86.6993744 L286.767818,86.6993744 C284.325676,86.6993744 282.34593,84.7196279 282.34593,82.2774868 C282.34593,79.8353457 284.325676,77.8555991 286.767818,77.8555991 L286.93031,77.8555991 C288.837931,77.8555991 290.621804,77.5069664 292.28764,76.8115551 C293.953475,76.119853 295.419411,75.1536949 296.672121,73.9334803 C297.932446,72.7058478 298.918621,71.2668104 299.632549,69.6089502 C300.346478,67.9566534 300.702493,66.1967996 300.702493,64.3460787 C298.792967,65.7035214 296.672121,66.823597 294.33043,67.626565 C291.983029,68.4202609 289.511879,68.8152543 286.93031,68.8152543 C283.802345,68.8152543 280.855245,68.2311091 278.06235,67.0757994 C275.273264,65.9204895 272.823058,64.312699 270.717441,62.2598452 C268.60992,60.2051373 266.955506,57.8184862 265.765624,55.1017466 C264.583355,52.3850073 263.983656,49.5050779 263.983656,46.4601043 L263.983656,28.7512496 C263.983656,26.2435493 266.016548,24.2106565 268.524249,24.2106565 C271.031949,24.2106565 273.064842,26.2435493 273.064842,28.7512496 L273.064842,46.4601043 C273.064842,48.318243 273.420855,50.0743878 274.134784,51.7229759 C274.848715,53.3826904 275.831081,54.8309999 277.087597,56.0512145 C278.344114,57.278847 279.829089,58.2320241 281.52729,58.9274352 C283.227395,59.6265552 285.026497,59.9696246 286.93031,59.9696246 C288.837931,59.9696246 290.621804,59.6265552 292.28764,58.9274352 C293.953475,58.2320241 295.419411,57.278847 296.672121,56.0512145 C297.932446,54.8309999 298.918621,53.3826904 299.632549,51.7229759 C300.346478,50.0743878 300.702493,48.318243 300.702493,46.4601043 L300.702493,28.7474417 C300.702493,26.2418444 302.733681,24.2106565 305.239279,24.2106565 C307.744876,24.2106565 309.776064,26.2418444 309.776064,28.7474417 L309.776064,64.3460787 Z" id="Fill-8"></path>
                <path d="M154.986564,25.8425549 C157.743284,27.0089912 160.172548,28.5926739 162.281973,30.6140024 C164.393302,32.6353308 166.034389,34.9886021 167.231887,37.6719617 C168.417963,40.3460495 169.01576,43.2500863 169.01576,46.3655284 L169.01576,64.1773276 C169.01576,66.6845027 166.983293,68.7169696 164.476118,68.7169696 C161.968943,68.7169696 159.936476,66.6845027 159.936476,64.1773276 L159.936476,46.3655284 C159.936476,44.5110985 159.57856,42.7716437 158.86463,41.1490175 C158.150701,39.5226829 157.162621,38.1003352 155.909912,36.8727027 C154.64578,35.6524878 153.170325,34.6881846 151.47022,33.9927733 C149.766308,33.2973622 147.967205,32.9505839 146.065296,32.9505839 C144.155772,32.9505839 142.369995,33.2973622 140.711774,33.9927733 C139.044034,34.6881846 137.581906,35.6524878 136.321582,36.8727027 C135.06697,38.1003352 134.080794,39.5226829 133.366865,41.1490175 C132.651031,42.7716437 132.296922,44.5110985 132.296922,46.3655284 L132.296922,64.1754242 C132.296922,66.6836505 130.263603,68.7169696 127.755376,68.7169696 C125.24715,68.7169696 123.213831,66.6836505 123.213831,64.1754242 L123.213831,46.3655284 C123.213831,44.5110985 122.855914,42.7716437 122.141984,41.1490175 C121.429958,39.5226829 120.449495,38.1003352 119.189171,36.8727027 C117.926943,35.6524878 116.449584,34.6881846 114.747575,33.9927733 C113.055086,33.2973622 111.24456,32.9505839 109.346458,32.9505839 C107.444549,32.9505839 105.658773,33.2973622 103.989129,33.9927733 C102.323293,34.6881846 100.861165,35.6524878 99.6084558,36.8727027 C98.344324,38.1003352 97.3562453,39.5226829 96.6442192,41.1490175 C95.9302895,42.7716437 95.5742765,44.5110985 95.5742765,46.3655284 L95.5742765,64.1811356 C95.5742765,66.6862075 93.5435144,68.7169696 91.0384424,68.7169696 C88.5333704,68.7169696 86.5026083,66.6862075 86.5026083,64.1811356 L86.5026083,46.3655284 C86.5026083,43.2500863 87.0927904,40.3460495 88.2902886,37.6719617 C89.4725564,34.9886021 91.1098353,32.6353308 93.1830875,30.6140024 C95.2506283,28.5926739 97.6817972,27.0089912 100.472787,25.8425549 C103.259969,24.687245 106.212782,24.1049542 109.346458,24.1049542 C113.155988,24.1049542 116.639965,24.9190488 119.804102,26.537966 C122.966335,28.1643008 125.597404,30.3710722 127.704925,33.1527167 C129.810542,30.3710722 132.46065,28.1643008 135.664767,26.537966 C138.851749,24.9190488 142.3224,24.1049542 146.065296,24.1049542 C149.261797,24.1049542 152.231746,24.687245 154.986564,25.8425549 Z" id="Fill-11"></path>
                <path d="M24.5950452,86.6203518 L24.5950452,73.7960252 L25.8626847,73.7960252 L25.8626847,85.5004808 L33.2874299,85.5004808 L33.2874299,86.6203518 L24.5950452,86.6203518 L24.5950452,86.6203518 Z M39.1442175,73.7960252 L40.2126565,73.7960252 L45.5548511,86.6203518 L44.2147753,86.6203518 L42.548735,82.610492 L36.771921,82.610492 L35.1239897,86.6203518 L33.7658046,86.6203518 L39.1442175,73.7960252 L39.1442175,73.7960252 Z M42.2589888,81.6170582 L39.6693825,75.2771446 L37.0435579,81.6170582 L42.2589888,81.6170582 L42.2589888,81.6170582 Z M50.187778,80.1178764 C50.187778,79.3472088 50.3235953,78.5795631 50.5952335,77.8149164 C50.866872,77.0502694 51.2622509,76.3669143 51.7813819,75.7648303 C52.3005132,75.1627463 52.9403627,74.6720551 53.7009503,74.2927422 C54.4615377,73.9134291 55.3247312,73.7237756 56.2905564,73.7237756 C57.437474,73.7237756 58.4183758,73.9826677 59.2332909,74.5004602 C60.0482061,75.0182523 60.6488197,75.6925763 61.0351497,76.5234525 L60.0391473,77.1375752 C59.8339095,76.7161163 59.5834024,76.3608921 59.2876183,76.0718917 C58.9918343,75.7828914 58.6749276,75.5480819 58.3368887,75.3674568 C57.9988498,75.1868316 57.6487433,75.0573856 57.286559,74.9791145 C56.9243744,74.9008435 56.5682317,74.8617087 56.21812,74.8617087 C55.4454596,74.8617087 54.7633558,75.0182483 54.1717877,75.3313319 C53.5802199,75.6444158 53.0822234,76.0538266 52.6777841,76.5595774 C52.2733449,77.0653279 51.9685107,77.6342888 51.7632729,78.2664772 C51.5580348,78.8986654 51.4554175,79.5398752 51.4554175,80.1901261 C51.4554175,80.9005853 51.5791622,81.58093 51.8266547,82.2311808 C52.0741475,82.8814317 52.4121814,83.4564132 52.8407664,83.9561431 C53.2693513,84.455873 53.7764021,84.8532422 54.3619337,85.1482637 C54.9474651,85.4432847 55.5842968,85.5907932 56.2724474,85.5907932 C56.6346319,85.5907932 57.0058653,85.5456375 57.3861591,85.4553249 C57.7664529,85.3650123 58.1346683,85.2205143 58.4908164,85.0218265 C58.8469645,84.8231387 59.1759437,84.5762881 59.477764,84.2812669 C59.7795846,83.9862457 60.03311,83.628011 60.2383478,83.2065522 L61.2886778,83.7484251 C61.0834397,84.2300923 60.7936965,84.6545553 60.4194391,85.0218265 C60.0451819,85.3890979 59.6286759,85.6991664 59.1699089,85.9520419 C58.7111418,86.2049169 58.2252182,86.3975811 57.7121236,86.5300396 C57.199029,86.6624982 56.6949963,86.7287263 56.2000108,86.7287263 C55.3186952,86.7287263 54.5098286,86.5360623 53.7733869,86.1507285 C53.036945,85.7653947 52.4031316,85.262662 51.8719278,84.6425154 C51.3407237,84.0223689 50.927236,83.317941 50.6314518,82.5292109 C50.3356679,81.7404809 50.187778,80.9367106 50.187778,80.1178764 L50.187778,80.1178764 L50.187778,80.1178764 Z M68.4236251,86.7106639 C67.5302367,86.7106639 66.7123155,86.527031 65.9698372,86.1597596 C65.2273591,85.7924885 64.5905274,85.3048075 64.0593236,84.6967027 C63.5281197,84.0885978 63.1176501,83.3932011 62.8279024,82.610492 C62.5381549,81.8277826 62.393283,81.0270227 62.393283,80.2081885 C62.393283,79.3532292 62.5472094,78.5344072 62.8550661,77.7516978 C63.1629229,76.9689886 63.5884832,76.2766022 64.1317601,75.6745182 C64.6750369,75.0724342 65.3148866,74.5937846 66.0513283,74.2385547 C66.7877702,73.8833251 67.5845642,73.7057131 68.4417341,73.7057131 C69.3351227,73.7057131 70.1530439,73.8953667 70.895522,74.2746796 C71.6380001,74.6539927 72.2718137,75.1507045 72.7969811,75.7648303 C73.3221488,76.3789561 73.7296001,77.0743527 74.0193478,77.8510412 C74.3090953,78.6277295 74.4539669,79.4194583 74.4539669,80.2262509 C74.4539669,81.0812104 74.3000408,81.9000323 73.992184,82.6827416 C73.6843272,83.465451 73.2617848,84.1548268 72.7245445,84.7508899 C72.1873042,85.3469533 71.5504728,85.8225927 70.8140309,86.1778221 C70.0775889,86.5330517 69.280795,86.7106639 68.4236251,86.7106639 L68.4236251,86.7106639 L68.4236251,86.7106639 Z M63.6609225,80.2081885 C63.6609225,80.906606 63.7756127,81.5779195 64.0049962,82.2221495 C64.2343797,82.8663797 64.5603408,83.4383507 64.9828896,83.9380806 C65.4054381,84.4378105 65.9064524,84.8351798 66.4859476,85.1302013 C67.0654429,85.4252223 67.7113288,85.5727308 68.4236251,85.5727308 C69.1479942,85.5727308 69.8059527,85.4161912 70.3975208,85.1031075 C70.9890889,84.7900239 71.4901032,84.3806126 71.9005789,83.874862 C72.3110548,83.3691115 72.6279613,82.7971402 72.8513084,82.1589311 C73.0746555,81.5207221 73.1863274,80.8704811 73.1863274,80.2081885 C73.1863274,79.5097708 73.0686193,78.8384572 72.8331994,78.1942275 C72.5977795,77.5499975 72.2688001,76.9810365 71.8462515,76.4873277 C71.423703,75.9936187 70.9226885,75.5992594 70.3431932,75.3042384 C69.763698,75.0092172 69.1238485,74.8617087 68.4236251,74.8617087 C67.699256,74.8617087 67.0412974,75.0152378 66.4497293,75.3223008 C65.8581613,75.6293636 65.3571469,76.0357642 64.9466713,76.541515 C64.5361954,77.0472655 64.2192888,77.6192368 63.9959417,78.2574459 C63.7725944,78.895655 63.6609225,79.5458961 63.6609225,80.2081885 L63.6609225,80.2081885 L63.6609225,80.2081885 Z M88.2425557,86.6203518 L88.2425557,76.0899542 L83.5522897,84.2361107 L82.8098154,84.2361107 L78.1195494,76.0899542 L78.1195494,86.6203518 L76.8519099,86.6203518 L76.8519099,73.7960252 L78.1557675,73.7960252 L83.1719979,82.5743671 L88.2244466,73.7960252 L89.5101952,73.7960252 L89.5101952,86.6203518 L88.2425557,86.6203518 L88.2425557,86.6203518 Z M104.131804,86.6203518 L104.131804,76.0899542 L99.4415381,84.2361107 L98.6990636,84.2361107 L94.0087978,76.0899542 L94.0087978,86.6203518 L92.7411584,86.6203518 L92.7411584,73.7960252 L94.0450159,73.7960252 L99.0612463,82.5743671 L104.113695,73.7960252 L105.399444,73.7960252 L105.399444,86.6203518 L104.131804,86.6203518 L104.131804,86.6203518 Z M113.845837,85.5727308 C114.654716,85.5727308 115.327766,85.4192016 115.865006,85.1121388 C116.402246,84.8050758 116.830825,84.4016855 117.150755,83.9019558 C117.470684,83.4022259 117.694028,82.8332651 117.820792,82.195056 C117.947557,81.5568469 118.010938,80.9126266 118.010938,80.2623758 L118.010938,73.7960252 L119.278578,73.7960252 L119.278578,80.2623758 C119.278578,81.1293768 119.181997,81.9512093 118.988832,82.7278976 C118.795667,83.5045863 118.484796,84.1879414 118.056211,84.7779837 C117.627626,85.3680261 117.069267,85.8376446 116.381116,86.1868534 C115.692966,86.5360621 114.853918,86.7106639 113.863947,86.7106639 C112.84983,86.7106639 111.995691,86.527031 111.301504,86.1597596 C110.607317,85.7924885 110.048958,85.307818 109.626409,84.705734 C109.20386,84.10365 108.902045,83.4172844 108.720952,82.6466168 C108.53986,81.8759492 108.449315,81.08121 108.449315,80.2623758 L108.449315,73.7960252 L109.698846,73.7960252 L109.698846,80.2623758 C109.698846,80.9367099 109.765245,81.5929718 109.898046,82.2311808 C110.030847,82.8693899 110.257209,83.4353405 110.577139,83.9290493 C110.897068,84.4227583 111.322629,84.8201278 111.853833,85.1211699 C112.385037,85.4222118 113.049032,85.5727308 113.845837,85.5727308 L113.845837,85.5727308 L113.845837,85.5727308 Z M123.57798,76.1441414 L123.57798,86.6203518 L122.310341,86.6203518 L122.310341,73.7960252 L123.288234,73.7960252 L131.799527,84.4709222 L131.799527,73.8140877 L133.067167,73.8140877 L133.067167,86.6203518 L131.962509,86.6203518 L123.57798,76.1441414 L123.57798,76.1441414 Z M140.282139,73.7960252 L141.350578,73.7960252 L146.692774,86.6203518 L145.352698,86.6203518 L143.686657,82.610492 L137.909843,82.610492 L136.261912,86.6203518 L134.903727,86.6203518 L140.282139,73.7960252 L140.282139,73.7960252 Z M143.396911,81.6170582 L140.807304,75.2771446 L138.18148,81.6170582 L143.396911,81.6170582 L143.396911,81.6170582 Z M152.765492,85.5727308 C153.574371,85.5727308 154.247419,85.4192016 154.784661,85.1121388 C155.3219,84.8050758 155.750479,84.4016855 156.070409,83.9019558 C156.390339,83.4022259 156.613682,82.8332651 156.740447,82.195056 C156.867211,81.5568469 156.930593,80.9126266 156.930593,80.2623758 L156.930593,73.7960252 L158.198231,73.7960252 L158.198231,80.2623758 C158.198231,81.1293768 158.101651,81.9512093 157.908486,82.7278976 C157.715321,83.5045863 157.404451,84.1879414 156.975865,84.7779837 C156.547281,85.3680261 155.988921,85.8376446 155.300771,86.1868534 C154.61262,86.5360621 153.773571,86.7106639 152.783601,86.7106639 C151.769484,86.7106639 150.915345,86.527031 150.221157,86.1597596 C149.526971,85.7924885 148.968612,85.307818 148.546064,84.705734 C148.123515,84.10365 147.821699,83.4172844 147.640606,82.6466168 C147.459515,81.8759492 147.36897,81.08121 147.36897,80.2623758 L147.36897,73.7960252 L148.618499,73.7960252 L148.618499,80.2623758 C148.618499,80.9367099 148.684899,81.5929718 148.8177,82.2311808 C148.950502,82.8693899 149.176863,83.4353405 149.496792,83.9290493 C149.816722,84.4227583 150.242282,84.8201278 150.773487,85.1211699 C151.304691,85.4222118 151.968686,85.5727308 152.765492,85.5727308 L152.765492,85.5727308 L152.765492,85.5727308 Z M170.356998,74.915896 L165.775387,74.915896 L165.775387,86.6203518 L164.507748,86.6203518 L164.507748,74.915896 L159.926137,74.915896 L159.926137,73.7960252 L170.356998,73.7960252 L170.356998,74.915896 L170.356998,74.915896 Z M176.883825,72.0439695 L176.068913,71.7369081 L177.137352,70.057102 L178.441211,70.057102 L176.883825,72.0439695 L176.883825,72.0439695 Z M180.922162,85.5004808 L180.922162,86.6203518 L172.284105,86.6203518 L172.284105,73.7960252 L180.75918,73.7960252 L180.75918,74.915896 L173.551743,74.915896 L173.551743,79.5398786 L179.835613,79.5398786 L179.835613,80.605562 L173.551743,80.605562 L173.551743,85.5004808 L180.922162,85.5004808 L180.922162,85.5004808 Z M195.460762,76.1983287 C195.098577,75.7889116 194.615672,75.4577702 194.012031,75.204895 C193.408391,74.9520197 192.72025,74.8255838 191.94759,74.8255838 C190.812746,74.8255838 189.985769,75.0393204 189.466638,75.4668002 C188.947508,75.89428 188.687946,76.4752823 188.687946,77.2098249 C188.687946,77.5951587 188.757363,77.911248 188.8962,78.1581027 C189.035039,78.4049571 189.249327,78.6186937 189.539076,78.7993188 C189.828822,78.9799439 190.200056,79.1364835 190.652786,79.268942 C191.105518,79.4014006 191.639732,79.5338571 192.255444,79.6663156 C192.943595,79.8108156 193.562319,79.9733761 194.111631,80.1540012 C194.660945,80.3346264 195.128759,80.5604045 195.515089,80.8313425 C195.901419,81.1022802 196.1972,81.4304111 196.402437,81.8157449 C196.607675,82.2010787 196.710292,82.6827387 196.710292,83.2607394 C196.710292,83.8507817 196.595602,84.3625457 196.366219,84.7960461 C196.136835,85.2295467 195.816911,85.5907918 195.406434,85.8797922 C194.995958,86.1687925 194.507017,86.3825289 193.939595,86.5210083 C193.372172,86.6594877 192.750432,86.7287263 192.074353,86.7287263 C190.082339,86.7287263 188.361989,86.1085891 186.91325,84.8682958 L187.54707,83.8387372 C187.776454,84.0795709 188.051105,84.3083593 188.371036,84.5251095 C188.690966,84.7418599 189.047108,84.9315135 189.439475,85.0940764 C189.831841,85.2566389 190.251365,85.3830747 190.69806,85.4733873 C191.144754,85.5636999 191.615586,85.6088556 192.110572,85.6088556 C193.136762,85.6088556 193.936574,85.4252227 194.510032,85.0579513 C195.083492,84.6906802 195.370216,84.1337607 195.370216,83.3871766 C195.370216,82.989801 195.288726,82.6556493 195.125743,82.3847115 C194.96276,82.1137736 194.71829,81.8789644 194.392323,81.6802768 C194.066357,81.4815888 193.661924,81.3099975 193.179012,81.1654974 C192.696098,81.0209971 192.134721,80.8764993 191.494861,80.731999 C190.818784,80.5754572 190.227225,80.4128969 189.720167,80.2443134 C189.213109,80.0757298 188.784529,79.8650036 188.434417,79.6121283 C188.084306,79.359253 187.821726,79.0552052 187.64667,78.6999754 C187.471615,78.3447457 187.384088,77.9082414 187.384088,77.3904491 C187.384088,76.8004068 187.495759,76.2735911 187.719108,75.8099863 C187.942454,75.3463816 188.25936,74.9610537 188.669836,74.6539909 C189.080313,74.3469279 189.563217,74.1121187 190.118568,73.949556 C190.673917,73.7869932 191.289621,73.7057131 191.965699,73.7057131 C192.822869,73.7057131 193.586464,73.8351592 194.256505,74.0940553 C194.926545,74.3529515 195.533195,74.717207 196.076473,75.1868325 L195.460762,76.1983287 L195.460762,76.1983287 Z M204.124466,86.7106639 C203.231078,86.7106639 202.413156,86.527031 201.670678,86.1597596 C200.9282,85.7924885 200.291367,85.3048075 199.760165,84.6967027 C199.22896,84.0885978 198.818491,83.3932011 198.528743,82.610492 C198.238996,81.8277826 198.094123,81.0270227 198.094123,80.2081885 C198.094123,79.3532292 198.24805,78.5344072 198.555906,77.7516978 C198.863764,76.9689886 199.289324,76.2766022 199.8326,75.6745182 C200.375877,75.0724342 201.015727,74.5937846 201.752169,74.2385547 C202.48861,73.8833251 203.285405,73.7057131 204.142575,73.7057131 C205.035963,73.7057131 205.853884,73.8953667 206.596363,74.2746796 C207.33884,74.6539927 207.972655,75.1507045 208.497822,75.7648303 C209.022989,76.3789561 209.43044,77.0743527 209.720188,77.8510412 C210.009935,78.6277295 210.154808,79.4194583 210.154808,80.2262509 C210.154808,81.0812104 210.000881,81.9000323 209.693024,82.6827416 C209.385168,83.465451 208.962625,84.1548268 208.425385,84.7508899 C207.888145,85.3469533 207.251314,85.8225927 206.514872,86.1778221 C205.778429,86.5330517 204.981635,86.7106639 204.124466,86.7106639 L204.124466,86.7106639 L204.124466,86.7106639 Z M199.361764,80.2081885 C199.361764,80.906606 199.476453,81.5779195 199.705837,82.2221495 C199.93522,82.8663797 200.261181,83.4383507 200.68373,83.9380806 C201.106279,84.4378105 201.607293,84.8351798 202.186788,85.1302013 C202.766283,85.4252223 203.41217,85.5727308 204.124466,85.5727308 C204.848835,85.5727308 205.506793,85.4161912 206.098362,85.1031075 C206.689929,84.7900239 207.190943,84.3806126 207.60142,83.874862 C208.011895,83.3691115 208.328802,82.7971402 208.552148,82.1589311 C208.775497,81.5207221 208.887168,80.8704811 208.887168,80.2081885 C208.887168,79.5097708 208.76946,78.8384572 208.534039,78.1942275 C208.29862,77.5499975 207.96964,76.9810365 207.547092,76.4873277 C207.124543,75.9936187 206.623529,75.5992594 206.044034,75.3042384 C205.464539,75.0092172 204.824689,74.8617087 204.124466,74.8617087 C203.400096,74.8617087 202.742139,75.0152378 202.15057,75.3223008 C201.559002,75.6293636 201.057988,76.0357642 200.647512,76.541515 C200.237035,77.0472655 199.92013,77.6192368 199.696783,78.2574459 C199.473435,78.895655 199.361764,79.5458961 199.361764,80.2081885 L199.361764,80.2081885 L199.361764,80.2081885 Z M212.55275,86.6203518 L212.55275,73.7960252 L213.82039,73.7960252 L213.82039,85.5004808 L221.245135,85.5004808 L221.245135,86.6203518 L212.55275,86.6203518 L212.55275,86.6203518 Z M223.117914,86.6203518 L223.117914,73.7960252 L224.385552,73.7960252 L224.385552,86.6203518 L223.117914,86.6203518 L223.117914,86.6203518 Z M227.616517,86.6203518 L227.616517,73.7960252 L231.980817,73.7960252 C233.007006,73.7960252 233.903401,73.9646064 234.670024,74.3017733 C235.436648,74.6389405 236.076499,75.0965175 236.589591,75.6745182 C237.102686,76.2525189 237.48901,76.9298534 237.748576,77.7065416 C238.008142,78.4832301 238.137923,79.3110833 238.137923,80.1901261 C238.137923,81.1655024 237.993053,82.0475421 237.703304,82.8362721 C237.413557,83.6250024 237.000069,84.2993266 236.462828,84.8592647 C235.925589,85.4192027 235.279701,85.8526969 234.52515,86.1597596 C233.770601,86.4668226 232.922496,86.6203518 231.980817,86.6203518 L227.616517,86.6203518 L227.616517,86.6203518 Z M236.870283,80.1901261 C236.870283,79.4194585 236.761631,78.7120203 236.544319,78.0677903 C236.32701,77.4235603 236.010102,76.8666411 235.59359,76.3970156 C235.177077,75.9273899 234.667009,75.5631346 234.063367,75.3042384 C233.459727,75.0453422 232.765549,74.915896 231.980817,74.915896 L228.884156,74.915896 L228.884156,85.5004808 L231.980817,85.5004808 C232.777623,85.5004808 233.480854,85.3650141 234.090531,85.0940764 C234.70021,84.8231385 235.210278,84.4498519 235.620753,83.9742055 C236.031231,83.4985591 236.342099,82.9386294 236.553375,82.2943994 C236.764649,81.6501695 236.870283,80.9487519 236.870283,80.1901261 L236.870283,80.1901261 L236.870283,80.1901261 Z M243.752886,73.7960252 L244.821326,73.7960252 L250.163518,86.6203518 L248.823443,86.6203518 L247.157403,82.610492 L241.380589,82.610492 L239.732657,86.6203518 L238.374473,86.6203518 L243.752886,73.7960252 L243.752886,73.7960252 Z M246.867656,81.6170582 L244.27805,75.2771446 L241.652226,81.6170582 L246.867656,81.6170582 L246.867656,81.6170582 Z M252.018188,86.6203518 L252.018188,73.7960252 L253.285827,73.7960252 L253.285827,86.6203518 L252.018188,86.6203518 L252.018188,86.6203518 Z M256.51679,86.6203518 L256.51679,73.7960252 L261.94953,73.7960252 C262.50488,73.7960252 263.014948,73.91343 263.479753,74.1482426 C263.944555,74.3830555 264.345972,74.6901137 264.684011,75.0694267 C265.02205,75.4487396 265.284628,75.8792235 265.471758,76.3608907 C265.658886,76.842558 265.752448,77.3302387 265.752448,77.8239475 C265.752448,78.2935732 265.683032,78.7421191 265.544194,79.1695986 C265.405357,79.5970784 265.212195,79.9824063 264.964703,80.3255944 C264.717209,80.6687822 264.41841,80.9577783 264.068299,81.1925909 C263.718188,81.4274038 263.325826,81.5869536 262.891205,81.6712455 L266.042195,86.6203518 L264.611572,86.6203518 L261.587347,81.8879946 L257.78443,81.8879946 L257.78443,86.6203518 L256.51679,86.6203518 L256.51679,86.6203518 Z M257.78443,80.7681239 L261.985749,80.7681239 C262.360008,80.7681239 262.70106,80.6868437 263.008916,80.524281 C263.316772,80.3617183 263.579353,80.1419608 263.796661,79.8650025 C264.013974,79.5880436 264.18299,79.2749645 264.303719,78.925756 C264.424447,78.576547 264.484809,78.2092813 264.484809,77.8239475 C264.484809,77.4386137 264.415393,77.0683375 264.276553,76.7131079 C264.137718,76.3578785 263.950592,76.0478098 263.71517,75.7828927 C263.479751,75.5179757 263.20208,75.3072495 262.882153,75.1507077 C262.562223,74.9941659 262.227205,74.915896 261.877094,74.915896 L257.78443,74.915896 L257.78443,80.7681239 L257.78443,80.7681239 Z M276.98765,85.5004808 L276.98765,86.6203518 L268.349593,86.6203518 L268.349593,73.7960252 L276.824667,73.7960252 L276.824667,74.915896 L269.617232,74.915896 L269.617232,79.5398786 L275.901101,79.5398786 L275.901101,80.605562 L269.617232,80.605562 L269.617232,85.5004808 L276.98765,85.5004808 L276.98765,85.5004808 Z" id="LA-COMMUNAUTÉ-SOLIDAIRE"></path>
            </g>
        </g>
    </g>
</svg>